<svg enable-background="new 0 0 428.4 474.2" height="474.2" viewBox="0 0 428.4 474.2" width="428.4" xmlns="http://www.w3.org/2000/svg"><path d="m162.5 212c-5 4.8-7 12.4-2.2 18.2 4.5 5.5 13.3 6.6 18.9 2.3 13.7-10.5-.6-30-15.3-26-2.7.7-2 4.6.6 4.8 4.3.2 8.9.4 12.4 3.4 3.7 3.2 3.8 8.7.7 12.5-8 9.9-22-4.7-13.5-13.5 1.2-1.1-.5-2.8-1.6-1.7z" fill="#1ea5a5"/><path d="m303.2 228.7c1.9 6.9 3.9 13.7 6 20.4.5 1.6 2.1 2.1 3.5 1.2 5.5-3.7 11-7.4 16.3-11.6 1-.8.8-2.4-.2-3.1-6.1-4.2-14.4-10.4-22.2-10.4-2 0-3.4 2.8-1.4 3.9 3.1 1.8 6.9 2.5 10.2 3.8 3.9 1.6 7.7 3.5 11.1 5.9.1-1.1.2-2.3.2-3.4-5.8 3.6-11.3 7.6-16.9 11.6 1.1.2 2.2.4 3.3.7-2.4-6.7-4.8-13.4-7.4-20-.6-1.3-2.9-.5-2.5 1z" fill="#04baba"/><path d="m341.9 265c8.2-3.9 16.6-8.4 24-13.7 2.7-1.9 0-5.7-2.8-4.2-7.9 4.1-15.6 9.5-22.7 14.9-1.4 1.1-.3 3.9 1.5 3z" fill="#7fcccc"/><path d="m39.7 290.1c-1.7-8.9-3.9-18.2-7.2-26.7-1.2-3.1-5.5-1.5-4.8 1.6 2 8.7 5.2 17.5 8.7 25.7.7 1.7 3.7 1.4 3.3-.6z" fill="#038d92"/><path d="m65.5 211c-.2-.1-.3-.3-.5-.4-2-1.8-5.4-2.2-7.3 0-2 2.2-1.9 5.2 0 7.3.1.2.3.3.4.5 1.8 2.1 5.6 2 7.4 0 1.9-1.9 2.2-5.4 0-7.4z" fill="#038d92"/><path d="m284.2 441.2s-86.2 20.1-120.9-14.6l12.4-82.7c3.8-23.8 1.5-69.5 19.7-85.8 3.5-3.1 6.9-4.7 6.9-4.7 12.8-6.2 35.5-9.5 57.3-9.6 26.5-.1 53.8 19.9 60.7 45.5l-28.7 67.1z" fill="#04baba"/><path d="m275.7 299.7s38.6 74.4 19.4 78.4c-63.1 13-99.7 23.7-99.7 23.7l-3.2 24.5c.9 3.7 127.6.5 142.6-16.5 10.6-12 24.7-39.8-5.3-99.9l-9.1-20.5z" fill="#aceae8"/><path d="m203.1 261.4-96.2 37.2-3-50.5-20.6-8s-29.9 81 7.5 96.1c37.3 15.1 79.4-12.8 79.4-12.8z" fill="#aceae8"/><path d="m215 249c-33.6 10.7-53.6 23.2-100.9 43l24.3 54.1 41.8-13.4z" fill="#04baba"/><path d="m269.9 289.4 24.4 56.7 55-10.1-37.1-63.8-43.9 17.2" fill="#04baba"/><path d="m241.1 328c11.7-.7 23.3-.1 35 0 1 0 1-1.4 0-1.5-11.5-1.4-23.5-.8-35 .2-.9 0-.9 1.4 0 1.3z" fill="#038d92"/><path d="m293.6 262.3c-39.6 3.6-12.5 62-2.4 79.6.6 1 2.1.1 1.5-.9-10.1-17.9-37.1-72.2 1-77.8.6 0 .4-1-.1-.9z" fill="#038d92"/><path d="m183.8 295.7c-4.9 19.4-8.1 39.7-9.4 59.7-.1.8 1.3 1 1.5.2 2.8-19.9 5.7-39.8 8.9-59.6.1-.7-.8-1-1-.3z" fill="#038d92"/><path d="m276.5 187.8c.6-8.4 1.2-16.7 1.8-25.1 6.6-1.9 10-10.3 7.4-16.6s-10.1-9.8-16.8-8.9c4.3-2.9 3.9-9.8.4-13.6s-9-5-14.1-5.2c-5.2-.2-10.4.4-15.4-.5-4.5-.8-8.9-2.9-13.4-2.3s-8.9 5.7-6.4 9.5c-6.5-1-13.6-1.8-19.4 1.3-5.8 3.2-8.7 12.1-3.7 16.5-3.3 1.7-4.1 6.5-2.3 9.7 1.9 3.2 5.7 4.9 9.3 5.2 3.7.3 7.4-.7 10.9-1.6" fill="#095656"/><path d="m275.5 171.6-1.3 17.4s14.8 2 10.6 15.5-14.3 7.6-14.3 7.6-2.5 34.5-37.9 23.6c-28.2-8.7-26.4-45.2-22.9-76.3 1.4-12 12.8-20.3 24.7-18l21.3 4.1c12.2 2.3 20.7 13.6 19.8 26.1z" fill="#aceae8"/><path d="m274.1 203.4-9.5 50.8c-2.1 11.5-13.4 18.8-24.8 16.1-10.5-2.5-17.2-12.8-15.3-23.4l5.2-29.1z" fill="#aceae8"/><path d="m235 203.9s0 .1-.1.4c-.1.2-.3.5-.8.7s-1.1.1-1.7-.3-1-1.1-1.2-1.9c-.5-1.6-.4-3.6-.3-5.6.1-2.1.3-4.4.4-6.8.3-4.8.6-9.2.9-12.3s.5-5.1.6-5.1.1 2 0 5.1-.3 7.5-.6 12.3c-.2 2.4-.3 4.7-.5 6.8s-.3 3.9.1 5.4c.3 1.5 1.5 2.3 2.3 2.1.4-.1.6-.3.8-.5 0-.2.1-.3.1-.3z" fill="#0d1e51"/><path d="m223.5 232c.1-.1 1.7 1.1 4.6 2.5s7.2 2.8 12.1 2.9 9.3-1.1 12.2-2.4c3-1.3 4.6-2.4 4.7-2.3 0 0-.3.4-1.1.9-.7.5-1.9 1.2-3.4 1.9-2.9 1.4-7.4 2.8-12.5 2.7s-9.5-1.6-12.4-3.2c-1.5-.8-2.6-1.5-3.3-2.1-.5-.5-.9-.8-.9-.9z" fill="#0d1e51"/><path d="m230.4 211.1c.1-.1.8.7 2.3 1.5s3.9 1.3 6.3.6c2.4-.8 4-2.7 4.8-4.1.8-1.5.9-2.6 1-2.6s.2 1.1-.5 2.8c-.7 1.6-2.4 3.8-5.1 4.7s-5.3.1-6.8-.9-2-2-2-2z" fill="#0d1e51"/><path d="m275.3 206.1c0-.1.9-.1 2-.7.5-.3 1.1-.8 1.3-1.5s0-1.6-.7-1.9c-.5-.2-1.2-.1-1.4.3l-.7-.4c1.3-2.8 2.3-4.7 2.5-4.7.2.1-.6 2.2-1.8 5l-.7-.4c.5-.8 1.5-1 2.4-.7.6.2 1.1.7 1.2 1.3.2.6.1 1.1-.1 1.6-.3 1-1.1 1.6-1.8 1.8-1.4.6-2.3.4-2.2.3z" fill="#0d1e51"/><path d="m248 171.8c0-.1.4-.3 1.1-.5.7-.1 1.7-.2 2.8.1s2 .8 2.5 1.3.8.9.7.9c-.2.2-1.5-.9-3.4-1.4-2-.4-3.6-.1-3.7-.4z" fill="#0d1e51"/><path d="m217.4 167c-.1-.2 1.7-1.2 4.2-1s4.1 1.5 3.9 1.7c-.1.2-1.8-.7-4-.8-2.2-.2-4 .3-4.1.1z" fill="#0d1e51"/><path d="m274.1 188.9c-9.9-9.6-12.8-25.7-15.5-39.2-9.1 6.7-21.7 8.3-32.3 4.2-3.3 3.9-7.2 7.3-11.5 10-1.2.8-2.7 1.5-4.1 1.1-1.7-.5-2.4-2.4-2.8-4.1-1.3-5.4-1.3-11.2.6-16.4s5.8-9.8 11-11.8c5.5-2.1 11.7-1.2 17.5.3 8.6 2.2 17 5.7 24.7 10.2 7.6 4.4 14.8 10.3 18 18.4 3.2 8.2 3.2 24-4.5 28.1" fill="#095656"/><path d="m250.7 186c-.2 0-.3-1.2-.2-2.7s.4-2.7.6-2.6c.2 0 .3 1.2.2 2.7-.1 1.4-.4 2.6-.6 2.6z" fill="#0d1e51"/><path d="m222.3 182.4c-.2 0-.3-1.2-.2-2.7s.4-2.7.6-2.6c.2 0 .3 1.2.2 2.7-.1 1.4-.4 2.6-.6 2.6z" fill="#0d1e51"/><path d="m82.3 241.9s4.3-26.2 9.4-26c5.1.3 15.3 0 15.3 0s.9-25 3.7-21 3.7 37.5-7.2 53.7z" fill="#aceae8"/><path d="m195.4 401.8s-45.8 8-44.9 14c.9 5.9 4.1 11.9 4.1 11.9l40.8-1z" fill="#aceae8"/><path d="m245.1 429.1-.4-6.3-94.2-5.8-31.7-84.6-103.4 5.7 35.3 91.5z" fill="#038d92"/><path d="m72.4 378.4c.2 4.2 3.9 7.5 8.1 7.2 4.2-.2 7.5-3.9 7.2-8.1-.2-4.2-3.9-7.5-8.1-7.2-4.2.2-7.4 3.8-7.2 8.1z" fill="#fff" opacity=".41"/><path d="m69.4 378.5c.3 5.9 5.4 10.5 11.3 10.1 5.9-.3 10.5-5.4 10.1-11.3-.3-5.9-5.4-10.5-11.3-10.1s-10.5 5.4-10.1 11.3z" fill="#fff" opacity=".41"/><path d="m0 431 404.7-5.1 23.7 12.4c0 .1-310.7 85.3-428.4-7.3z" fill="#7fcccc"/><path d="m316.6 131.6c-1.2 2.4 2.8 63.8 2.8 63.8l30.3-2.5-3.5 16.2 14.8-16.7 29.6-3.4-1.8-59.6z" fill="#7fcccc"/><path d="m239.7 35.9s-20.8 1-21.5 23.3c0 0 .3 12.2 6.9 16.7s6.3 9.4 6.3 9.4h17.4s-.7-6.3 2.1-9.7c2.8-3.5 9.7-10.8 8.7-21.5-1.1-10.9-9.1-19.3-19.9-18.2z" fill="#aceae8"/><path d="m231 90.7c6.2-.3 12.5.4 18.7 0 .9-.1 1.2-1.4.2-1.6-6-1.2-12.9-.6-19 .1-.8.1-.8 1.5.1 1.5z" fill="#038d92"/><path d="m233.5 96.1c2.5-.1 5-.2 7.5-.2s5 .4 7.5.3c.9-.1 1.2-1.4.2-1.6-4.8-1.2-10.6-.5-15.4.2-.9 0-.7 1.4.2 1.3z" fill="#038d92"/><path d="m235.5 100.2c2.2.2 4.4.8 6.6.7 1.1 0 1.3-1.5.3-1.9-2.1-.7-4.7-.4-6.8-.3-1 0-1 1.4-.1 1.5z" fill="#038d92"/><path d="m236.5 85c.5-6.2-1.6-13-2.7-19.1-.6.3-1.2.5-1.8.8.9 1.4 2.3 5.6 4.6 5.4s3.2-4.3 3.5-5.9c-.7 0-1.3 0-2 0 .4 1.9.5 6.5 3.5 6.1 2.5-.4 4.3-4.1 5-6.2-.7-.2-1.4-.4-2.1-.6-1.5 6-2.3 13.7-.7 19.8.3 1.1 2 .9 2-.3-.2-6.4-1.1-12.7.8-19 .4-1.3-1.6-1.8-2.1-.6-.3.7-1.9 4.8-3.5 4.2-.4-.1-.9-3.7-1-4.1-.2-.9-1.8-1-2 0-.2 1.2-.7 4.6-2.2 3.6-.8-.6-1.6-2.7-2.1-3.6-.6-1-2-.3-1.8.8 1 6.1 1.2 13.1 3.7 18.8.2.6.9.3.9-.1z" fill="#038d92"/><g fill="#aceae8"><path d="m174.9 76.5c9.3-3 18.6-6 27.9-8.9"/><path d="m186.5 48.8c5.9-.2 11.8-.3 17.7-.5"/><path d="m213.9 40.1c-6.8-5.7-13.5-11.3-20.3-17"/><path d="m228.9 30.7c-2-3.3-4-6.5-6.1-9.8"/><path d="m242.3 27c-.2-9-.4-18-.5-27"/><path d="m252.8 30.9c2-3.4 4-6.9 6-10.3"/><path d="m261.3 37.9c8.2-4.6 16.4-9.2 24.6-13.8"/></g><path d="m267.4 49.7c3.4.7 7.9 0 10.7-2 .5-.3.2-1.2-.4-1-1.6.5-3.1 1.2-4.7 1.6-1.8.4-3.6.5-5.5.6-.4 0-.6.7-.1.8z" fill="#7393ff"/><path d="m268.9 65.2c12.6 2.7 25.2 5.3 37.8 8" fill="#aceae8"/><path d="m92 284c.4-2.8.3-5.4 1.9-7.8 3.1-4.8 7.4-3.6 11.7-1.5 4.3 2.2 8.3 3.5 13 1.4 7.3-3.2 10.7-14.2 3.8-19.4-2.3-1.7-4.5 1.1-4.2 3.2.4 3 1.9 6.2-.6 8.8-3.4 3.4-7.4.5-10.8-1-3.7-1.6-7.5-2-11.3-.5-6.5 2.6-11.2 11.4-6.1 17.4.7.9 2.5.5 2.6-.6z" fill="#038d92"/><path d="m188 289.3c8.8-2.4 17.8-5.3 26.1-9.2 3-1.4 1.1-5.6-2-4.7-8.5 2.7-17.1 6.5-25 10.6-1.6.8-1.1 3.8.9 3.3z" fill="#7fcccc"/><path d="m144.4 298.4c1.9 6.9 3.9 13.7 6 20.4.5 1.6 2.1 2.1 3.5 1.2 5.5-3.7 11-7.4 16.3-11.6 1-.8.8-2.4-.2-3.1-6.1-4.2-14.4-10.4-22.2-10.4-2 0-3.4 2.8-1.4 3.9 3.1 1.8 6.9 2.5 10.2 3.8 3.9 1.6 7.7 3.5 11.1 5.9.1-1.1.2-2.3.2-3.4-5.8 3.6-11.3 7.6-16.9 11.6 1.1.2 2.2.4 3.3.7-2.4-6.7-4.8-13.4-7.4-20-.5-1.2-2.9-.5-2.5 1z" fill="#e5e8f5"/><path d="m156.5 367.1c9.1.7 18.6.9 27.6.1 3.3-.3 2.9-4.9-.3-5-8.9-.3-18.3.4-27.1 1.6-1.7.2-2.3 3.2-.2 3.3z" fill="#038d92"/><path d="m21.3 117.7 5.1 61.2h112.8l6.3 21.6 6.5-23.6 21.5-1.3-9.9-54.9z" fill="#7fcccc"/><path d="m36.1 139.9c38.8-1.9 77.7-1.7 116.3 1.9.7.1.7-1 0-1.1-38.7-3.1-77.6-4.1-116.3-1.8-.6.1-.6 1 0 1z" fill="#fff"/><path d="m38.3 152c38.8-1.9 77.7-1.7 116.3 1.9.7.1.7-1 0-1.1-38.7-3.1-77.6-4.1-116.3-1.8-.5.1-.6 1 0 1z" fill="#fff"/><path d="m38.6 162.1c26.1.9 51.9-1.1 78 1.2.7.1.7-1 0-1.1-26.1-1.9-51.9-.6-78-1.1-.6 0-.6 1 0 1z" fill="#fff"/><path d="m361.3 158.7-1.9.6c-2.5.8-2.8 1.4-2.8 3.3v3.4h-2.2l-.8-2.5c-.7-2.4-.9-3.4-.9-4.1 0-1.7 1.2-2.8 4.7-3.9l3.2-1.1c2.2-.7 3.4-2.1 3.4-4.1 0-2.9-2.4-5.9-4.8-8.1l6.4 4.2-10.9-1.9c-3.5-.6-4.2-1.7-4.2-3.1 0-1.8 1.1-2.6 3.2-3.2 4.9.5 13.4 5.5 13.4 13.1 0 3.6-1.9 6.1-5.8 7.4zm-9.6 16.8c0-2 1.6-3.8 3.7-3.8s3.7 1.8 3.7 3.8-1.6 3.7-3.7 3.7-3.7-1.7-3.7-3.7z"/></svg>